<?xml version="1.0" encoding="UTF-8"?>
<svg version="1.1" xmlns="http://www.w3.org/2000/svg" width="24" height="24">
<path d="M0 0 C1.66718742 0 3.33425791 -0.05559408 5 -0.125 C8 0 8 0 10 2 C10.3125 5.5 10.3125 5.5 10 9 C6.62985276 11.24676483 6.00076021 10.98006922 2.25 10.29296875 C-2.46357902 9.67922148 -7.25524505 9.92988047 -12 10 C-12.1875 4.296875 -12.1875 4.296875 -10.5 1.625 C-6.84839785 -0.7485414 -4.31775775 -0.27856502 0 0 Z M-9 4 C-9.33 5.32 -9.66 6.64 -10 8 C-6.7 8 -3.4 8 0 8 C0 6.02 0 4.04 0 2 C-3.56144099 1.80214217 -6.04454879 1.88896342 -9 4 Z M3 3 C3 3.99 3 4.98 3 6 C3.66 5.01 4.32 4.02 5 3 C4.34 3 3.68 3 3 3 Z M6 6 C5.67 6.66 5.34 7.32 5 8 C5.66 8 6.32 8 7 8 C6.67 7.34 6.34 6.68 6 6 Z " fill="#000000" transform="translate(13,13)"/>
<path d="M0 0 C1 1 1 1 1.1875 4.4375 C1 8 1 8 -1 10 C-4.5 10.25 -4.5 10.25 -8 10 C-10 8 -10 8 -10.3125 5.0625 C-10 2 -10 2 -8.9375 0.0625 C-5.84787273 -1.63181173 -3.32782582 -0.73951685 0 0 Z M-6 2 C-6.99 3.485 -6.99 3.485 -8 5 C-7.01 6.485 -7.01 6.485 -6 8 C-4.01508358 7.73323796 -4.01508358 7.73323796 -2 7 C-1.67 6.01 -1.34 5.02 -1 4 C-1.33 3.34 -1.66 2.68 -2 2 C-3.32 2 -4.64 2 -6 2 Z " fill="#000000" transform="translate(16,2)"/>
</svg>
