<?xml version="1.0" encoding="UTF-8"?>
<svg version="1.1" xmlns="http://www.w3.org/2000/svg" width="512" height="512">
<path d="M0 0 C0.91297852 0.16628906 1.82595703 0.33257812 2.76660156 0.50390625 C44.3986228 8.16363077 83.16052206 26.40624883 116 53 C116.54446777 53.44005371 117.08893555 53.88010742 117.64990234 54.33349609 C131.72173929 65.81174863 144.93680647 78.57719064 156 93 C156.75925781 93.93070312 157.51851563 94.86140625 158.30078125 95.8203125 C184.1596216 128.07168914 200.62794761 167.52514646 208 208 C208.16371094 208.83563477 208.32742188 209.67126953 208.49609375 210.53222656 C213.78656862 238.24163521 213.41678597 270.35093304 208 298 C207.83371094 298.91297852 207.66742188 299.82595703 207.49609375 300.76660156 C199.83636923 342.3986228 181.59375117 381.16052206 155 414 C154.55994629 414.54446777 154.11989258 415.08893555 153.66650391 415.64990234 C142.18825137 429.72173929 129.42280936 442.93680647 115 454 C114.06929688 454.75925781 113.13859375 455.51851563 112.1796875 456.30078125 C79.92831086 482.1596216 40.47485354 498.62794761 0 506 C-0.83563477 506.16371094 -1.67126953 506.32742188 -2.53222656 506.49609375 C-30.24163521 511.78656862 -62.35093304 511.41678597 -90 506 C-90.91297852 505.83371094 -91.82595703 505.66742188 -92.76660156 505.49609375 C-134.3986228 497.83636923 -173.16052206 479.59375117 -206 453 C-206.54446777 452.55994629 -207.08893555 452.11989258 -207.64990234 451.66650391 C-221.72173929 440.18825137 -234.93680647 427.42280936 -246 413 C-246.75925781 412.06929688 -247.51851562 411.13859375 -248.30078125 410.1796875 C-274.1596216 377.92831086 -290.62794761 338.47485354 -298 298 C-298.16371094 297.16436523 -298.32742188 296.32873047 -298.49609375 295.46777344 C-303.78656862 267.75836479 -303.41678597 235.64906696 -298 208 C-297.83371094 207.08702148 -297.66742188 206.17404297 -297.49609375 205.23339844 C-289.83636923 163.6013772 -271.59375117 124.83947794 -245 92 C-244.55994629 91.45553223 -244.11989258 90.91106445 -243.66650391 90.35009766 C-232.18825137 76.27826071 -219.42280936 63.06319353 -205 52 C-204.06929688 51.24074219 -203.13859375 50.48148438 -202.1796875 49.69921875 C-169.92831086 23.8403784 -130.47485354 7.37205239 -90 0 C-89.16436523 -0.16371094 -88.32873047 -0.32742188 -87.46777344 -0.49609375 C-59.75836479 -5.78656862 -27.64906696 -5.41678597 0 0 Z M-140 59 C-140.7110791 59.34256836 -141.4221582 59.68513672 -142.15478516 60.03808594 C-153.56852867 65.61121303 -163.85057617 72.38451159 -174 80 C-174.93457031 80.69996094 -175.86914062 81.39992187 -176.83203125 82.12109375 C-183.93726964 87.64228869 -190.4825062 93.80679126 -197 100 C-197.82886719 100.78632812 -198.65773437 101.57265625 -199.51171875 102.3828125 C-205.15953275 107.88277797 -210.16617709 113.77714752 -215 120 C-215.43070801 120.55429688 -215.86141602 121.10859375 -216.30517578 121.6796875 C-240.48793806 153.05191964 -255.08417636 189.75175072 -260 229 C-260.13148438 229.99 -260.26296875 230.98 -260.3984375 232 C-264.67721511 271.78106748 -256.3421613 312.20649155 -239 348 C-238.65743164 348.7110791 -238.31486328 349.4221582 -237.96191406 350.15478516 C-232.38878697 361.56852867 -225.61548841 371.85057617 -218 382 C-217.30003906 382.93457031 -216.60007813 383.86914062 -215.87890625 384.83203125 C-210.35771131 391.93726964 -204.19320874 398.4825062 -198 405 C-196.82050781 406.24330078 -196.82050781 406.24330078 -195.6171875 407.51171875 C-190.11722203 413.15953275 -184.22285248 418.16617709 -178 423 C-177.44570312 423.43070801 -176.89140625 423.86141602 -176.3203125 424.30517578 C-144.94808036 448.48793806 -108.24824928 463.08417636 -69 468 C-67.515 468.19722656 -67.515 468.19722656 -66 468.3984375 C-26.21893252 472.67721511 14.20649155 464.3421613 50 447 C50.7110791 446.65743164 51.4221582 446.31486328 52.15478516 445.96191406 C63.56852867 440.38878697 73.85057617 433.61548841 84 426 C84.93457031 425.30003906 85.86914062 424.60007812 86.83203125 423.87890625 C93.93726964 418.35771131 100.4825062 412.19320874 107 406 C107.82886719 405.21367187 108.65773438 404.42734375 109.51171875 403.6171875 C115.15953275 398.11722203 120.16617709 392.22285248 125 386 C125.64606201 385.16855469 125.64606201 385.16855469 126.30517578 384.3203125 C150.48793806 352.94808036 165.08417636 316.24824928 170 277 C170.19722656 275.515 170.19722656 275.515 170.3984375 274 C174.67721511 234.21893252 166.3421613 193.79350845 149 158 C148.65743164 157.2889209 148.31486328 156.5778418 147.96191406 155.84521484 C142.38878697 144.43147133 135.61548841 134.14942383 128 124 C127.30003906 123.06542969 126.60007812 122.13085938 125.87890625 121.16796875 C120.35771131 114.06273036 114.19320874 107.5174938 108 101 C106.82050781 99.75669922 106.82050781 99.75669922 105.6171875 98.48828125 C100.11722203 92.84046725 94.22285248 87.83382291 88 83 C87.44570313 82.56929199 86.89140625 82.13858398 86.3203125 81.69482422 C54.94808036 57.51206194 18.24824928 42.91582364 -21 38 C-21.99 37.86851563 -22.98 37.73703125 -24 37.6015625 C-63.78106748 33.32278489 -104.20649155 41.6578387 -140 59 Z " fill="#000000" transform="translate(301,3)"/>
<path d="M0 0 C4.44964592 3.05802359 6.97962713 6.68888139 8.6875 11.8125 C8.75158519 13.34268742 8.75621127 14.87573424 8.72459412 16.40693665 C8.70837006 17.35004196 8.692146 18.29314728 8.6754303 19.26483154 C8.65290695 20.29803528 8.63038361 21.33123901 8.60717773 22.39575195 C8.56775789 24.65528367 8.52926323 26.91483166 8.49156189 29.1743927 C8.47066938 30.37549997 8.44977688 31.57660725 8.42825127 32.81411171 C8.32067768 39.84672892 8.28173018 46.88000374 8.24014366 53.91327918 C8.19585985 61.3488106 8.1234577 68.78118366 7.95727539 76.21508789 C7.81111228 82.76131594 7.7608732 89.30441163 7.76646614 95.85228539 C7.75299558 98.33911809 7.70793665 100.82600067 7.62972832 103.31163979 C6.85305984 116.40765779 6.85305984 116.40765779 11.46431923 128.22671509 C15.68944779 132.46032237 20.4374411 135.64839229 25.61236477 138.60900784 C28.1894301 140.10359859 30.51996496 141.84451145 32.86328125 143.6796875 C34.24063701 144.68442063 35.6195019 145.68708881 37 146.6875 C44.84453618 152.42090272 52.59224386 158.27291956 60.30786133 164.1784668 C65.93409729 168.48430824 71.59178667 172.73810231 77.3125 176.91796875 C82.96184033 181.42443266 87.37266231 185.77157971 88.5625 193.0625 C89.07195088 199.30067404 87.17614596 204.3314234 84 209.625 C78.26704189 215.04806848 72.7839408 216.25747568 65.0078125 216.5390625 C56.18757812 214.60898768 48.7268397 207.75550013 41.75 202.3125 C39.89812334 200.88413491 38.04523831 199.45707632 36.19140625 198.03125 C34.80719482 196.96583984 34.80719482 196.96583984 33.39501953 195.87890625 C29.3648917 192.80307199 25.27996527 189.8046082 21.1875 186.8125 C13.50447797 181.18483951 5.90954883 175.44915064 -1.65014648 169.65698242 C-5.76193208 166.50837326 -9.88290156 163.37742326 -14.0546875 160.30859375 C-14.78727783 159.76799316 -15.51986816 159.22739258 -16.2746582 158.67041016 C-17.62586399 157.67620666 -18.98088722 156.68715975 -20.34057617 155.70458984 C-25.54956348 151.86477014 -29.19443388 148.06123341 -31.3125 141.8125 C-31.56976891 139.18934917 -31.56976891 139.18934917 -31.57992554 136.32975769 C-31.58845551 135.24060562 -31.59698547 134.15145355 -31.60577393 133.02929688 C-31.60486755 131.84424561 -31.60396118 130.65919434 -31.60302734 129.43823242 C-31.60974457 128.18238846 -31.61646179 126.92654449 -31.62338257 125.63264465 C-31.64101813 122.19447713 -31.64573695 118.75640921 -31.64701414 115.31820083 C-31.64843785 113.16744377 -31.65271163 111.01671187 -31.65800858 108.86596107 C-31.67650176 101.35487898 -31.68468021 93.84386778 -31.68310547 86.33276367 C-31.68190471 79.34412734 -31.70299578 72.35580017 -31.7345928 65.36724204 C-31.76079359 59.35686015 -31.77147116 53.34657898 -31.77019465 47.33614045 C-31.76968607 43.7509777 -31.77531106 40.16608972 -31.79655075 36.58098412 C-31.819615 32.57876021 -31.81038915 28.57722344 -31.79833984 24.57495117 C-31.80957886 23.3959726 -31.82081787 22.21699402 -31.83239746 21.00228882 C-31.77180257 13.07406965 -30.75966585 7.45664676 -25.125 1.5 C-16.82621925 -3.47926845 -8.6646156 -4.95808559 0 0 Z " fill="#000000" transform="translate(267.3125,121.1875)"/>
</svg>
